<?xml version="1.0" encoding="UTF-8"?>
<svg width="40px" height="40px" viewBox="0 0 40 40" version="1.1" xmlns="http://www.w3.org/2000/svg" xmlns:xlink="http://www.w3.org/1999/xlink">
    <!-- Generator: Sketch 48.2 (47327) - http://www.bohemiancoding.com/sketch -->
    <title>PLUS</title>
    <desc>Created with Sketch.</desc>
    <defs></defs>
    <g id="PARKING-LOTS" stroke="none" stroke-width="1" fill="none" fill-rule="evenodd">
        <path d="M21.2903226,18.7096774 L38.7144321,18.7096774 C39.4244317,18.7096774 40,19.2824062 40,20 C40,20.7126255 39.4191284,21.2903226 38.7144321,21.2903226 L21.2903226,21.2903226 L21.2903226,38.7144321 C21.2903226,39.4244317 20.7175938,40 20,40 C19.2873745,40 18.7096774,39.4191284 18.7096774,38.7144321 L18.7096774,21.2903226 L1.28556788,21.2903226 C0.575568345,21.2903226 1.38590903e-13,20.7175938 1.38634843e-13,20 C1.38678479e-13,19.2873745 0.580871627,18.7096774 1.28556788,18.7096774 L18.7096774,18.7096774 L18.7096774,1.28556788 C18.7096774,0.575568345 19.2824062,0 20,0 C20.7126255,0 21.2903226,0.580871627 21.2903226,1.28556788 L21.2903226,18.7096774 Z" id="Combined-Shape-Copy" fill="#ADAEAF"></path>
    </g>
</svg>