<?xml version="1.0" encoding="UTF-8"?>
<svg width="112px" height="84px" viewBox="0 0 112 84" version="1.1" xmlns="http://www.w3.org/2000/svg" xmlns:xlink="http://www.w3.org/1999/xlink">
    <!-- Generator: Sketch 48.2 (47327) - http://www.bohemiancoding.com/sketch -->
    <title>additional_info_BS</title>
    <desc>Created with Sketch.</desc>
    <defs></defs>
    <g id="PARKING-LOTS" stroke="none" stroke-width="1" fill="none" fill-rule="evenodd">
        <rect id="Rectangle-16" fill="#FFFFFF" x="-124" y="-531" width="415" height="700"></rect>
        <g id="Group-4-Copy">
            <path d="M14.0846056,72 L97.914898,72 C99.434207,72 100.925747,72.4072201 102.23427,73.1792743 L110.40472,78 C111.938072,78.9047082 112.447689,80.8811469 111.542981,82.4144995 C110.963264,83.3970373 109.907412,84 108.7666,84 L3.23290312,84 C1.45254723,84 0.00928361435,82.5567364 0.00928361435,80.7763805 C0.00928361435,79.6355687 0.612246353,78.5797166 1.59478407,78 L9.76523353,73.1792743 C11.0737564,72.4072201 12.5652966,72 14.0846056,72 Z" id="Rectangle-22" fill="#F5F5F5"></path>
            <g id="business-card-of-a-man-with-contact-info" transform="translate(9.000000, 0.000000)" fill-rule="nonzero">
                <path d="M81.273991,0 L12.7289521,0 C5.69786155,0 0,5.77216758 0,12.8949508 L0,64.1050492 C0,71.2308139 5.69786155,77 12.7289521,77 L81.273991,77 C88.3050816,77 94,71.2278324 94,64.1050492 L94,12.8949508 C94,5.77216758 88.3050816,0 81.273991,0 Z M87.9931119,64.1050492 C87.9931119,67.858747 84.9793669,70.9117943 81.273991,70.9117943 L12.7289521,70.9117943 C9.02357619,70.9117943 6.00983124,67.858747 6.00983124,64.1050492 L6.00983124,12.8949508 C6.00983124,9.141253 9.02357619,6.08820568 12.7289521,6.08820568 L81.273991,6.08820568 C84.9793669,6.08820568 87.9931119,9.141253 87.9931119,12.8949508 L87.9931119,64.1050492 Z" id="Shape" fill="#7D878D"></path>
                <path d="M81.273991,0 L12.7289521,0 C9.38765655,0 6.34744605,1.3035369 4.07672855,3.43609418 C6.35495452,5.51750806 8.84215196,7.74600852 11.5383209,10.1215955 C17.6592963,15.5147703 60.2506933,4.39995709 75.4780646,15.1347442 C82.6828466,20.2138743 84.6148221,34.4629576 81.273991,57.881994 C76.2713279,58.840106 79.6278964,63.5715225 91.3436964,72.0762434 C93.1145655,69.8705746 94,67.2135099 94,64.1050492 L94,12.8949508 C94,5.77216758 88.3050816,0 81.273991,0 Z M87.9931119,64.1050492 C87.9931119,65.9544276 87.2615696,67.6337334 86.0761895,68.8616405 C85.8165406,69.1306046 85.8673577,25.1555723 80.1485162,20.988547 C58.9833953,5.56661332 6.93744574,9.20756013 7.8220201,8.2493046 C9.04901875,6.92010235 10.7947573,6.08820568 12.7289521,6.08820568 L81.273991,6.08820568 C84.9793669,6.08820568 87.9931119,9.141253 87.9931119,12.8949508 L87.9931119,64.1050492 Z" id="Shape" fill="#F9F9F9" opacity="0.452898551"></path>
            </g>
            <g id="images" transform="translate(38.000000, 15.000000)" fill="#7D878D" fill-rule="nonzero">
                <path d="M42.0129972,0 L6.89939896,0 C6.35495124,0 5.91283345,0.59549546 5.91283345,1.32954679 L5.91283345,8.0545183 L0.98656551,8.0545183 C0.442117788,8.0551079 0,8.65001376 0,9.38406509 L0,43.6704532 C0,44.4050941 0.442117788,45 0.98656551,45 L36.1001637,45 C36.6446115,45 37.0867292,44.4039149 37.0867292,43.6704532 L37.0867292,36.9466609 L42.0134345,36.9466609 C42.5574449,36.9466609 43,36.3511654 43,35.6171141 L43,1.32954679 C42.9995627,0.59608506 42.5570076,0 42.0129972,0 Z M34.4388329,41.4311544 L2.64789635,41.4311544 L2.64789635,11.6251327 L5.91283345,11.6251327 L5.91283345,32.3483747 C5.91283345,35.898241 5.75105574,36.9466609 8.40996659,36.9466609 C20.5317717,36.9466609 28.2264511,36.9466609 31.4940048,36.9466609 L34.4388329,36.9466609 L34.4388329,41.4311544 Z M40.3516663,33.3760465 L8.56072979,33.3760465 L8.56072979,3.57061436 L40.3516663,3.57061436 L40.3516663,33.3760465 Z" id="Shape"></path>
            </g>
            <rect id="Rectangle-2" fill="#7D878D" x="51" y="22" width="22" height="3" rx="1"></rect>
            <rect id="Rectangle-2" fill="#7D878D" x="51" y="30" width="24" height="3" rx="1"></rect>
            <rect id="Rectangle-2" fill="#7D878D" x="51" y="35" width="24" height="3" rx="1"></rect>
            <rect id="Rectangle-2" fill="#7D878D" x="51" y="40" width="15" height="3" rx="1"></rect>
        </g>
    </g>
</svg>