<?xml version="1.0" encoding="UTF-8"?>
<svg width="112px" height="93px" viewBox="0 0 112 93" version="1.1" xmlns="http://www.w3.org/2000/svg" xmlns:xlink="http://www.w3.org/1999/xlink">
    <!-- Generator: Sketch 48.2 (47327) - http://www.bohemiancoding.com/sketch -->
    <title>blackout_BS</title>
    <desc>Created with Sketch.</desc>
    <defs>
        <path d="M2.38656007,3.63157895 L20.6134399,3.63157895 C21.9315007,3.63157895 23,4.70007829 23,6.01813902 L23,9.68421053 L0,9.68421053 L0,6.01813902 C-1.61415886e-16,4.70007829 1.06849934,3.63157895 2.38656007,3.63157895 Z" id="path-1"></path>
    </defs>
    <g id="PARKING-LOTS" stroke="none" stroke-width="1" fill="none" fill-rule="evenodd">
        <rect id="Rectangle-16" fill="#FFFFFF" x="-123" y="-212" width="415" height="700"></rect>
        <g id="Group-3">
            <path d="M32,19.2128851 L54.6309494,3.49523589 C55.4541211,2.92352659 56.5458789,2.92352659 57.3690506,3.49523589 L80,19.2128851" id="Path-5" stroke="#7D878D" stroke-width="1.20000005"></path>
            <path d="M14.0846056,81 L97.914898,81 C99.434207,81 100.925747,81.4072201 102.23427,82.1792743 L110.40472,87 C111.938072,87.9047082 112.447689,89.8811469 111.542981,91.4144995 C110.963264,92.3970373 109.907412,93 108.7666,93 L3.23290312,93 C1.45254723,93 0.00928361435,91.5567364 0.00928361435,89.7763805 C0.00928361435,88.6355687 0.612246353,87.5797166 1.59478407,87 L9.76523353,82.1792743 C11.0737564,81.4072201 12.5652966,81 14.0846056,81 Z" id="Rectangle-22" fill="#F5F5F5"></path>
            <path d="M11.8000002,18 L100.2,18 C102.850967,18 105,20.1490333 105,22.8000002 L105,81.1999998 C105,83.8509667 102.850967,86 100.2,86 L11.8000002,86 C9.14903329,86 7,83.8509667 7,81.1999998 L7,22.8000002 C7,20.1490333 9.14903329,18 11.8000002,18 Z M15.4000001,24 C14.0745166,24 13,25.0745166 13,26.4000001 L13,77.5999999 C13,78.9254834 14.0745166,80 15.4000001,80 L96.5999999,80 C97.9254834,80 99,78.9254834 99,77.5999999 L99,26.4000001 C99,25.0745166 97.9254834,24 96.5999999,24 L15.4000001,24 Z" id="Combined-Shape" fill="#7D878D"></path>
            <path d="M96.3529412,80 L96.5999999,80 C97.9254834,80 99,78.9254834 99,77.5999999 L99,26.4000001 C99,25.0745166 97.9254834,24 96.5999999,24 L15.6470588,24 L8.69691603,19.1774519 C9.02793613,18.8174072 9.51693921,18.5221106 10.1639253,18.2915621 C10.8109113,18.0610137 11.4966197,17.9638263 12.2210503,18 L100.2,18 C102.850967,18 105,20.1490333 105,22.8000002 L105,80.9173937 C105.016031,81.7970784 104.871845,82.556529 104.567445,83.1957456 C104.263044,83.8349623 103.860792,84.3905535 103.36069,84.8625194 L96.3529412,80 Z" id="Combined-Shape-Copy" fill="#F9F9F9" opacity="0.452898551"></path>
            <g id="Group-2" transform="translate(45.000000, 30.000000)">
                <g id="Rectangle-11">
                    <use fill="#7D878D" fill-rule="evenodd" xlink:href="#path-1"></use>
                    <path stroke="#7D878D" stroke-width="1.19328004" d="M0.596640018,9.08757051 L22.40336,9.08757051 L22.40336,6.01813902 C22.40336,5.02959347 21.6019855,4.22821897 20.6134399,4.22821897 L2.38656007,4.22821897 C1.39801452,4.22821897 0.596640018,5.02959347 0.596640018,6.01813902 L0.596640018,9.08757051 Z"></path>
                </g>
                <rect id="Rectangle-7" stroke="#7D878D" stroke-width="1.8" x="0.9" y="4.53157895" width="21.2" height="17.5684211" rx="2.38656007"></rect>
                <rect id="Rectangle-10" fill="#7D878D" x="14.5263158" y="14.5263158" width="4.84210526" height="4.84210526" rx="1.19328004"></rect>
                <path d="M6.0353853,0.676470588 L8.49093049,0.676470588 C9.14996086,0.676470588 9.68421053,1.21072026 9.68421053,1.86975062 L9.68421053,4.30804954 L4.84210526,4.30804954 L4.84210526,1.86975062 C4.84210526,1.21072026 5.37635493,0.676470588 6.0353853,0.676470588 Z" id="Rectangle-9" fill="#7D878D"></path>
                <path d="M14.5090695,0.676470588 L16.9646147,0.676470588 C17.6236451,0.676470588 18.1578947,1.21072026 18.1578947,1.86975062 L18.1578947,4.30804954 L13.3157895,4.30804954 L13.3157895,1.86975062 C13.3157895,1.21072026 13.8500391,0.676470588 14.5090695,0.676470588 Z" id="Rectangle-9" fill="#7D878D"></path>
            </g>
            <text id="CLOSED" font-family="Lato-Bold, Lato" font-size="14" font-weight="bold" letter-spacing="-0.411764622" fill="#7D878D">
                <tspan x="31.1107939" y="70">CLOSED</tspan>
            </text>
            <circle id="Oval" fill="#7D878D" cx="56" cy="3" r="3"></circle>
        </g>
    </g>
</svg>