<?xml version="1.0" encoding="UTF-8"?>
<svg width="112px" height="84px" viewBox="0 0 112 84" version="1.1" xmlns="http://www.w3.org/2000/svg" xmlns:xlink="http://www.w3.org/1999/xlink">
    <!-- Generator: Sketch 48.2 (47327) - http://www.bohemiancoding.com/sketch -->
    <title>contact_BS</title>
    <desc>Created with Sketch.</desc>
    <defs></defs>
    <g id="PARKING-LOTS" stroke="none" stroke-width="1" fill="none" fill-rule="evenodd">
        <rect id="Rectangle-16" fill="#FFFFFF" x="-123" y="-108" width="415" height="700"></rect>
        <g id="business-cards" transform="translate(33.000000, 19.000000)" fill="#7D878D" fill-rule="nonzero">
            <path d="M25.4290745,25.3337107 L24.4829223,25.3337107 C23.9922204,25.3337107 23.5931726,24.9254352 23.5931726,24.4201581 C23.5931726,24.231946 23.6664959,24.0538684 23.7976317,23.9235677 C24.3475563,23.3719615 24.812877,22.6335909 25.1456519,21.8358612 C25.214745,21.8879815 25.2866582,21.9256239 25.3698519,21.9256239 C25.9014456,21.9256239 26.5246934,20.7181709 26.5246934,19.8972765 C26.5246934,19.0749344 26.4527802,18.4089532 25.9211865,18.4089532 C25.8563236,18.4089532 25.7900506,18.4190877 25.7223676,18.4393567 C25.6842959,16.2112149 25.1357814,13.4285714 21.8207235,13.4285714 C18.3618392,13.4285714 17.9585612,16.203976 17.9190795,18.4306699 C17.8711373,18.4205354 17.8217851,18.410401 17.7766631,18.410401 C17.2450694,18.410401 17.1717461,19.0763822 17.1717461,19.8987243 C17.1717461,20.7196186 17.796404,21.9270717 18.3279977,21.9270717 C18.3942707,21.9270717 18.4549034,21.9068027 18.5113059,21.8735036 C18.8454908,22.6567555 19.3023512,23.3835438 19.8452254,23.9264633 C19.9763613,24.056764 20.0496845,24.2362894 20.0496845,24.4230537 C20.0496845,24.9283308 19.6520468,25.3366063 19.1599348,25.3366063 L18.2137826,25.3366063 C16.1889323,25.3366063 14.547619,27.0218284 14.547619,29.102296 L14.547619,30.1461493 C14.547619,30.8019961 15.0665222,31.3333333 15.7052807,31.3333333 L27.9389865,31.3333333 C28.577745,31.3333333 29.0952381,30.8019961 29.0952381,30.1461493 L29.0952381,29.102296 C29.0952381,27.0189329 27.4539249,25.3337107 25.4290745,25.3337107 Z" id="Shape"></path>
            <path d="M38.2158129,14.547619 L26.8571429,14.547619 C27.185022,15.2633785 27.4192214,16.1438397 27.5191464,17.2321019 C27.7611525,17.3798716 27.9422667,17.6184581 28.0905929,17.9047619 L38.2158129,17.9047619 C38.7419808,17.9047619 39.1666624,17.4860811 39.1666624,16.9688871 L39.1666624,15.4834938 C39.1682237,14.9662999 38.7419808,14.547619 38.2158129,14.547619 Z" id="Shape"></path>
            <path d="M38.2519374,20.1428571 L28.7196667,20.1428571 C28.4608993,21.1413841 27.8230074,22.1876064 26.9413927,22.4691633 C26.9143124,22.5168587 26.8827187,22.561477 26.8571429,22.610711 L26.8571429,23.5 L38.2504329,23.5 C38.7574366,23.5 39.1666502,23.0815111 39.1666502,22.5645541 L39.1666502,21.0798416 C39.1696592,20.5613461 38.7589411,20.1428571 38.2519374,20.1428571 Z" id="Shape"></path>
            <path d="M39.3028215,26.8571429 L31.3333333,26.8571429 C31.858617,27.6541181 32.1695979,28.5926411 32.1695979,29.6003994 L32.1695979,30.2142857 L39.3044328,30.2142857 C39.8474408,30.2142857 40.2857143,29.7957968 40.2857143,29.2788399 L40.2857143,27.7941273 C40.2857143,27.2771704 39.8458295,26.8571429 39.3028215,26.8571429 Z" id="Shape"></path>
            <path d="M41.3947456,5.5952381 L11.2019922,5.5952381 C8.10529953,5.5952381 5.5952381,8.02825774 5.5952381,11.029903 L5.5952381,32.6129541 C5.5952381,35.6131451 8.10529953,38.047619 11.2019922,38.047619 L41.3947456,38.047619 C44.4899379,38.047619 46.9999993,35.6131451 46.9999993,32.6129541 L46.9999993,11.029903 C47.0014997,8.02825774 44.4899379,5.5952381 41.3947456,5.5952381 Z M44.3534074,32.6129541 C44.3534074,34.196671 43.0256104,35.4837137 41.3932452,35.4837137 L11.2019922,35.4837137 C9.56962707,35.4837137 8.24183007,34.196671 8.24183007,32.6129541 L8.24183007,11.029903 C8.24183007,9.44764039 9.56962707,8.16059772 11.2019922,8.16059772 L41.3947456,8.16059772 C43.0271107,8.16059772 44.3549077,9.44764039 44.3549077,11.029903 L44.3549077,32.6129541 L44.3534074,32.6129541 Z" id="Shape"></path>
            <path d="M5.62203311,2.57073077 L25.3480428,2.57073077 L34.9372424,2.57073077 L35.8955606,2.57073077 C37.1321973,2.57073077 38.1928163,3.30772215 38.6366214,4.349123 L41.4047619,4.349123 C40.8797179,1.86723901 38.6140551,0 35.8955606,0 L33.6494553,0 L26.146892,0 L5.62203311,0 C2.51690163,0 0,2.43673234 0,5.44295802 L0,27.0589441 C0,29.8933022 2.24610528,32.1960361 5.10601562,32.452381 L5.10601562,29.8801937 C3.71592769,29.6427834 2.65530865,28.4717536 2.65530865,27.0574876 L2.65530865,5.44295802 C2.65530865,3.85973742 3.98672404,2.57073077 5.62203311,2.57073077 Z" id="Shape"></path>
        </g>
        <g id="Group-4">
            <path d="M14.0846056,72 L97.914898,72 C99.434207,72 100.925747,72.4072201 102.23427,73.1792743 L110.40472,78 C111.938072,78.9047082 112.447689,80.8811469 111.542981,82.4144995 C110.963264,83.3970373 109.907412,84 108.7666,84 L3.23290312,84 C1.45254723,84 0.00928361435,82.5567364 0.00928361435,80.7763805 C0.00928361435,79.6355687 0.612246353,78.5797166 1.59478407,78 L9.76523353,73.1792743 C11.0737564,72.4072201 12.5652966,72 14.0846056,72 Z" id="Rectangle-22" fill="#F5F5F5"></path>
            <g id="business-card-of-a-man-with-contact-info" transform="translate(9.000000, 0.000000)" fill-rule="nonzero">
                <path d="M81.273991,0 L12.7289521,0 C5.69786155,0 0,5.77216758 0,12.8949508 L0,64.1050492 C0,71.2308139 5.69786155,77 12.7289521,77 L81.273991,77 C88.3050816,77 94,71.2278324 94,64.1050492 L94,12.8949508 C94,5.77216758 88.3050816,0 81.273991,0 Z M87.9931119,64.1050492 C87.9931119,67.858747 84.9793669,70.9117943 81.273991,70.9117943 L12.7289521,70.9117943 C9.02357619,70.9117943 6.00983124,67.858747 6.00983124,64.1050492 L6.00983124,12.8949508 C6.00983124,9.141253 9.02357619,6.08820568 12.7289521,6.08820568 L81.273991,6.08820568 C84.9793669,6.08820568 87.9931119,9.141253 87.9931119,12.8949508 L87.9931119,64.1050492 Z" id="Shape" fill="#7D878D"></path>
                <path d="M81.273991,0 L12.7289521,0 C9.38765655,0 6.34744605,1.3035369 4.07672855,3.43609418 C6.35495452,5.51750806 8.84215196,7.74600852 11.5383209,10.1215955 C17.6592963,15.5147703 60.2506933,4.39995709 75.4780646,15.1347442 C82.6828466,20.2138743 84.6148221,34.4629576 81.273991,57.881994 C76.2713279,58.840106 79.6278964,63.5715225 91.3436964,72.0762434 C93.1145655,69.8705746 94,67.2135099 94,64.1050492 L94,12.8949508 C94,5.77216758 88.3050816,0 81.273991,0 Z M87.9931119,64.1050492 C87.9931119,65.9544276 87.2615696,67.6337334 86.0761895,68.8616405 C85.8165406,69.1306046 85.8673577,25.1555723 80.1485162,20.988547 C58.9833953,5.56661332 6.93744574,9.20756013 7.8220201,8.2493046 C9.04901875,6.92010235 10.7947573,6.08820568 12.7289521,6.08820568 L81.273991,6.08820568 C84.9793669,6.08820568 87.9931119,9.141253 87.9931119,12.8949508 L87.9931119,64.1050492 Z" id="Shape" fill="#F9F9F9" opacity="0.452898551"></path>
            </g>
        </g>
    </g>
</svg>