<?xml version="1.0" encoding="UTF-8"?>
<svg width="112px" height="91px" viewBox="0 0 112 91" version="1.1" xmlns="http://www.w3.org/2000/svg" xmlns:xlink="http://www.w3.org/1999/xlink">
    <!-- Generator: Sketch 48.2 (47327) - http://www.bohemiancoding.com/sketch -->
    <title>coupons_BS</title>
    <desc>Created with Sketch.</desc>
    <defs></defs>
    <g id="COUPONS" stroke="none" stroke-width="1" fill="none" fill-rule="evenodd">
        <g id="badge-copy">
            <path d="M14.0846056,79 L97.914898,79 C99.434207,79 100.925747,79.4072201 102.23427,80.1792743 L110.40472,85 C111.938072,85.9047082 112.447689,87.8811469 111.542981,89.4144995 C110.963264,90.3970373 109.907412,91 108.7666,91 L3.23290312,91 C1.45254723,91 0.00928361435,89.5567364 0.00928361435,87.7763805 C0.00928361435,86.6355687 0.612246353,85.5797166 1.59478407,85 L9.76523353,80.1792743 C11.0737564,79.4072201 12.5652966,79 14.0846056,79 Z" id="Rectangle-22" fill="#F5F5F5"></path>
            <path d="M96.7117146,57.2865018 C95.0325261,57.1625954 91.5477586,59.0742944 90.6088575,59.56992 C87.214369,61.3046098 82.5018078,64.0305509 79.4142677,66.2077636 C79.1975982,66.349371 78.9087056,66.5440811 78.6920361,66.6856884 C77.3017403,67.606136 75.8211655,68.2079672 74.1961444,68.5619855 C65.204361,70.5090863 52.0778016,70.7214973 52.0778016,70.7214973 L51.3194585,70.7568991 C50.7416732,70.792301 50.2361111,70.3851799 50.1458321,69.8187506 C50.0555532,69.1992185 50.5069479,68.6150883 51.1569563,68.5619855 L70.6572096,66.6679875 C72.8058486,66.4378756 74.5211486,64.3845693 74.2864234,62.0834501 C74.0516981,59.782331 71.9752822,58.100744 69.8266432,58.3485568 L52.475029,58.1361458 C51.3014027,58.1184449 49.4055447,57.8175293 48.2680299,57.4812119 C37.0914959,54.1534396 30.7900252,57.2688009 27.4316483,58.720276 C26.6913609,57.463511 25.2649535,56.6492688 23.6760439,56.7554743 L16.2009469,57.2688009 C13.7092478,57.4458101 11.8314457,59.5522191 12.0120036,61.9949456 L13.2036857,78.8816197 C13.3842436,81.3243462 15.5328826,83.1652415 18.0245817,82.9882323 L25.4996787,82.4749058 C27.0705325,82.3687003 28.3705493,81.377449 28.9302788,80.0321793 L61.7737609,81.4659535 C65.4390863,81.8553737 68.8696864,81.4128508 72.083617,79.6958619 L73.0225181,79.2002362 L97.8672851,64.4199711 C99.0950788,63.6942335 99.9617568,62.4374685 99.9978684,61.0390961 C100.052036,59.3398081 99.0770231,57.463511 96.7117146,57.2865018 Z M20.751006,78.9878252 C19.3426543,78.9878252 18.2051396,77.8726675 18.2051396,76.491996 C18.2051396,75.1113246 19.3426543,73.9961668 20.751006,73.9961668 C22.1593576,73.9961668 23.2968723,75.1113246 23.2968723,76.491996 C23.2968723,77.8549666 22.1593576,78.9878252 20.751006,78.9878252 Z" id="Shape" fill="#7D878D" fill-rule="nonzero"></path>
            <path d="M78,59.7659539 C78.1849568,60.3323687 78.3329223,60.917055 78.3884094,61.5382842 C78.4438964,62.0316133 78.4438964,62.5249424 78.4069051,63 C78.6658446,62.8172855 78.9432799,62.6162996 79.2022195,62.4335851 C81.7916153,60.5698975 87.1183724,57.6099231 90.1146732,56.0568501 C91.0209618,55.5817925 91.9827374,55.1250063 93,54.7413059 C91.6868064,53.846005 90.2811344,53.8094621 88.838471,54.3758769 C85.97164,55.5269781 80.7188656,58.1397951 78.0369914,59.6380537 C78.0369914,59.6928681 78.0184957,59.729411 78,59.7659539 Z" id="Shape" fill="#7D878D" fill-rule="nonzero"></path>
            <path d="M81.0990415,52.3841628 C79.4297125,53.0792117 75.6693291,54.3623788 74,55.2891105 C74.7204473,55.7524764 75.3530351,56.3227729 75.8977636,57 C76.0031949,56.9287129 76.1086262,56.8396041 76.2316294,56.7683171 L77.4440895,56.0554464 C79.2364217,55.0217841 83.0319489,53.6138646 85,52.6871328 C83.7523962,51.8495099 82.4345048,51.8138663 81.0990415,52.3841628 Z" id="Shape" fill="#7D878D" fill-rule="nonzero"></path>
            <path d="M38.7170339,25.0776211 C38.970026,25.4370925 38.9519551,25.6887225 38.7170339,26.0481938 C37.6147109,27.7017621 36.5304588,29.3553304 35.4823484,31.0268722 C34.4703798,32.6444934 35.1028602,34.5137445 36.8918762,35.1967401 C38.7531756,35.9156828 40.5964042,36.616652 42.4577036,37.2996476 C42.8552627,37.4434361 42.9817588,37.6411454 42.9998296,38.0365639 C43.090184,39.905815 43.2889635,41.7750661 43.2708927,43.6443172 C43.2528218,45.5495154 44.9334125,47.2210573 47.210342,46.5021145 C49.0174288,45.9269604 50.8787282,45.5135683 52.7038859,44.9923348 C53.0653033,44.8844934 53.2821537,44.9563877 53.5351459,45.2619383 C54.745894,46.7717181 55.9747131,48.2814978 57.221603,49.773304 C58.5769181,51.4088987 60.5285719,51.4088987 61.8658161,49.773304 C63.0946352,48.2635242 64.3053834,46.7717181 65.5161315,45.2439648 C65.7510528,44.9563877 65.9498324,44.8485463 66.3293206,44.9563877 C68.2267618,45.4776211 70.1242029,45.9808811 72.039715,46.484141 C73.9913688,47.0053744 75.6358178,45.8191189 75.744243,43.8240529 C75.8526682,41.8649339 75.9610934,39.9237885 76.0333769,37.9646696 C76.0514477,37.5153304 76.2502273,37.3355947 76.6297155,37.1918062 C78.4368024,36.5267841 80.2258183,35.825815 82.0148343,35.1248458 C83.9484172,34.3699559 84.5628267,32.5007048 83.4424329,30.7752423 C82.3762517,29.1576211 81.3281413,27.5220264 80.2438892,25.9223789 C79.990897,25.5629075 80.0089679,25.3112775 80.2438892,24.9518062 C81.2919996,23.3701322 82.322039,21.7884581 83.3520785,20.1888106 C84.5628267,18.3195595 83.9303463,16.4503084 81.8341256,15.6954185 C80.0451096,15.04837 78.2741645,14.3474009 76.5032195,13.7003524 C76.1237312,13.5565639 75.9791643,13.3588546 75.9610934,12.9454626 C75.8707391,11.0043172 75.7623139,9.08114537 75.6538886,7.15797357 C75.5454634,5.10898678 73.9190853,3.94070485 71.9312898,4.46193833 C70.0519195,4.96519824 68.1725492,5.45048458 66.3112497,5.98969163 C65.8775489,6.11550661 65.6606985,6.0076652 65.3896355,5.68414097 C64.1969581,4.1923348 62.9681391,2.70052863 61.7573909,1.22669604 C60.4382175,-0.408898678 58.450422,-0.408898678 57.1131778,1.22669604 C55.9205005,2.70052863 54.7097523,4.15638767 53.5532167,5.6661674 C53.2279411,6.07955947 52.9388072,6.15145374 52.4689646,6.0076652 C50.6438069,5.48643172 48.8005784,5.01911894 47.481405,4.65964758 C44.9153417,4.04854626 43.4154596,5.09101322 43.2708927,7.17594714 C43.1263257,9.13506608 43.0540422,11.0762115 42.9817588,13.0353304 C42.9636879,13.4487225 42.819121,13.6284581 42.4577036,13.7722467 C40.614475,14.4552423 38.7712465,15.1562115 36.9460888,15.8751542 C35.0486476,16.6300441 34.4523089,18.4813216 35.5727028,20.1888106 C36.5666005,21.8423789 37.6327818,23.46 38.7170339,25.0776211 Z M52.5412481,33.327489 C52.7219568,32.6804405 52.9026655,32.0333921 53.101445,31.3863436 C53.3363663,30.6314537 53.5351459,30.5415859 54.2218388,30.9010573 C55.3964453,31.5121586 56.6614061,31.8536564 57.9625086,32.0154185 C58.8118394,32.1232599 59.6430993,32.0333921 60.4201467,31.6918943 C61.883887,31.0628194 62.1188083,29.373304 60.8719184,28.3667841 C60.4562884,28.0252863 59.968375,27.7736564 59.4804615,27.5579736 C58.1974299,27.000793 56.8601856,26.5694273 55.6494374,25.8504846 C53.6797128,24.6822026 52.4328229,23.0825551 52.5954607,20.6920705 C52.7580985,17.9960352 54.2941223,16.3244934 56.7698313,15.425815 C57.7998708,15.04837 57.7998708,15.0663436 57.7998708,14.0059031 C57.7998708,13.6464317 57.7998708,13.2869604 57.7998708,12.927489 C57.8179416,12.1186784 57.9625086,11.9928634 58.7576268,11.9748899 C59.0106189,11.9748899 59.2455402,11.9748899 59.4985324,11.9748899 C61.197194,11.9748899 61.197194,11.9748899 61.2152649,13.6644053 C61.2152649,14.8686344 61.2152649,14.8686344 62.4260131,15.0663436 C63.3476273,15.2101322 64.2330999,15.4797357 65.0824307,15.8571806 C65.5522733,16.0548899 65.732982,16.3963877 65.588415,16.881674 C65.3715646,17.6185903 65.172785,18.3555066 64.9378637,19.0744493 C64.7210133,19.7574449 64.486092,19.8652863 63.8355408,19.5417621 C62.4982965,18.8947137 61.1068397,18.6251101 59.6250285,18.714978 C59.2455402,18.7329515 58.866052,18.7868722 58.5046346,18.9486344 C57.2396739,19.505815 57.0228234,20.8897797 58.1070755,21.752511 C58.6492016,22.1838767 59.281682,22.5074009 59.9322332,22.7770044 C61.0526271,23.2443172 62.1910918,23.6936564 63.257273,24.2688106 C66.6726671,26.1380617 67.5762105,30.3977974 65.1908559,33.3095154 C64.3234542,34.3519824 63.2030604,35.0709251 61.883887,35.4303965 C61.3056192,35.5921586 61.0526271,35.8797357 61.0706979,36.4728634 C61.0887688,37.0480176 61.0706979,37.6411454 61.0706979,38.2162996 C61.0706979,38.737533 60.7996349,39.0251101 60.2936506,39.0251101 C59.6611702,39.0430837 59.0286898,39.0430837 58.3962094,39.0251101 C57.8360125,39.0071366 57.5830204,38.7015859 57.5830204,38.1623789 C57.5830204,37.7310132 57.5830204,37.3176211 57.5649495,36.8862555 C57.5468786,35.95163 57.5288077,35.8977093 56.6071935,35.7718943 C55.4506579,35.5921586 54.2941223,35.3225551 53.2279411,34.8192952 C52.3786103,34.4059031 52.3063268,34.1902203 52.5412481,33.327489 Z" id="Shape" fill="#7D878D" fill-rule="nonzero"></path>
            <path d="M76.0333769,37.9646696 C76.4245896,38.2352694 76.2502273,37.3355947 76.6297155,37.1918062 C78.4368024,36.5267841 80.2258183,35.825815 82.0148343,35.1248458 C83.9484172,34.3699559 84.5628267,32.5007048 83.4424329,30.7752423 C82.3762517,29.1576211 81.3281413,27.5220264 80.2438892,25.9223789 C79.990897,25.5629075 80.0089679,25.3112775 80.2438892,24.9518062 C81.2919996,23.3701322 82.322039,21.7884581 83.3520785,20.1888106 C84.5628267,18.3195595 83.9303463,16.4503084 81.8341256,15.6954185 C80.0451096,15.04837 78.2741645,14.3474009 76.5032195,13.7003524 C76.1237312,13.5565639 75.9791643,13.3588546 75.9610934,12.9454626 C75.8707391,11.0043172 75.7623139,9.08114537 75.6538886,7.15797357 C75.5454634,5.10898678 73.9190853,3.94070485 71.9312898,4.46193833 C70.0519195,4.96519824 68.1725492,5.45048458 66.3112497,5.98969163 C65.8775489,6.11550661 65.6606985,6.0076652 65.3896355,5.68414097 C64.1969581,4.1923348 62.9681391,2.70052863 61.7573909,1.22669604 C60.4382175,-0.408898678 58.450422,-0.408898678 57.1131778,1.22669604 C55.9205005,2.70052863 54.7097523,4.15638767 53.5532167,5.6661674 C53.2279411,6.07955947 52.9388072,6.15145374 52.4689646,6.0076652 C50.6438069,5.48643172 48.8005784,5.01911894 47.481405,4.65964758 C44.9153417,4.04854626 43.4154596,5.09101322 43.2708927,7.17594714 C43.1263257,9.13506608 43.0540422,11.0762115 42.9817588,13.0353304 C42.9636879,13.4487225 42.819121,13.6284581 42.4577036,13.7722467 C57.1131778,25.384961 66.3112497,31.2399242 76.0333769,37.9646696 Z" id="Path" fill="#F9F9F9" opacity="0.452898551"></path>
        </g>
    </g>
</svg>