<?xml version="1.0" encoding="UTF-8"?>
<svg width="112px" height="84px" viewBox="0 0 112 84" version="1.1" xmlns="http://www.w3.org/2000/svg" xmlns:xlink="http://www.w3.org/1999/xlink">
    <!-- Generator: Sketch 48.2 (47327) - http://www.bohemiancoding.com/sketch -->
    <title>customers_BS</title>
    <desc>Created with Sketch.</desc>
    <defs></defs>
    <g id="PARKING-LOTS" stroke="none" stroke-width="1" fill="none" fill-rule="evenodd">
        <rect id="Rectangle-16" fill="#FFFFFF" x="-152" y="-757" width="415" height="906"></rect>
        <g id="Group-4-Copy">
            <path d="M14.0846056,72 L97.914898,72 C99.434207,72 100.925747,72.4072201 102.23427,73.1792743 L110.40472,78 C111.938072,78.9047082 112.447689,80.8811469 111.542981,82.4144995 C110.963264,83.3970373 109.907412,84 108.7666,84 L3.23290312,84 C1.45254723,84 0.00928361435,82.5567364 0.00928361435,80.7763805 C0.00928361435,79.6355687 0.612246353,78.5797166 1.59478407,78 L9.76523353,73.1792743 C11.0737564,72.4072201 12.5652966,72 14.0846056,72 Z" id="Rectangle-22" fill="#F5F5F5"></path>
            <g id="business-card-of-a-man-with-contact-info" transform="translate(9.000000, 0.000000)" fill-rule="nonzero">
                <path d="M81.273991,0 L12.7289521,0 C5.69786155,0 0,5.77216758 0,12.8949508 L0,64.1050492 C0,71.2308139 5.69786155,77 12.7289521,77 L81.273991,77 C88.3050816,77 94,71.2278324 94,64.1050492 L94,12.8949508 C94,5.77216758 88.3050816,0 81.273991,0 Z M87.9931119,64.1050492 C87.9931119,67.858747 84.9793669,70.9117943 81.273991,70.9117943 L12.7289521,70.9117943 C9.02357619,70.9117943 6.00983124,67.858747 6.00983124,64.1050492 L6.00983124,12.8949508 C6.00983124,9.141253 9.02357619,6.08820568 12.7289521,6.08820568 L81.273991,6.08820568 C84.9793669,6.08820568 87.9931119,9.141253 87.9931119,12.8949508 L87.9931119,64.1050492 Z" id="Shape" fill="#7D878D"></path>
                <path d="M81.273991,0 L12.7289521,0 C9.38765655,0 6.34744605,1.3035369 4.07672855,3.43609418 C6.35495452,5.51750806 8.84215196,7.74600852 11.5383209,10.1215955 C17.6592963,15.5147703 60.2506933,4.39995709 75.4780646,15.1347442 C82.6828466,20.2138743 84.6148221,34.4629576 81.273991,57.881994 C76.2713279,58.840106 79.6278964,63.5715225 91.3436964,72.0762434 C93.1145655,69.8705746 94,67.2135099 94,64.1050492 L94,12.8949508 C94,5.77216758 88.3050816,0 81.273991,0 Z M87.9931119,64.1050492 C87.9931119,65.9544276 87.2615696,67.6337334 86.0761895,68.8616405 C85.8165406,69.1306046 85.8673577,25.1555723 80.1485162,20.988547 C58.9833953,5.56661332 6.93744574,9.20756013 7.8220201,8.2493046 C9.04901875,6.92010235 10.7947573,6.08820568 12.7289521,6.08820568 L81.273991,6.08820568 C84.9793669,6.08820568 87.9931119,9.141253 87.9931119,12.8949508 L87.9931119,64.1050492 Z" id="Shape" fill="#F9F9F9" opacity="0.452898551"></path>
            </g>
            <g id="user-account-box" transform="translate(38.000000, 18.000000)" fill="#7D878D" fill-rule="nonzero">
                <path d="M0,4.33333333 L0,34.6666667 C0,37.05 1.95,39 4.33333333,39 L34.6666667,39 C37.05,39 39,37.05 39,34.6666667 L39,4.33333333 C39,1.95 37.05,0 34.6666667,0 L4.33333333,0 C1.95,0 0,1.95 0,4.33333333 Z M26,13 C26,16.6833333 23.1833333,19.5 19.5,19.5 C15.8166667,19.5 13,16.6833333 13,13 C13,9.31666667 15.8166667,6.5 19.5,6.5 C23.1833333,6.5 26,9.31666667 26,13 Z M6.5,30.3333333 C6.5,26 15.1666667,23.6166667 19.5,23.6166667 C23.8333333,23.6166667 32.5,26 32.5,30.3333333 L32.5,32.5 L6.5,32.5 L6.5,30.3333333 Z" id="Shape"></path>
            </g>
        </g>
    </g>
</svg>