<?xml version="1.0" encoding="UTF-8"?>
<svg width="50px" height="42px" viewBox="0 0 50 42" version="1.1" xmlns="http://www.w3.org/2000/svg" xmlns:xlink="http://www.w3.org/1999/xlink">
    <!-- Generator: Sketch 48.2 (47327) - http://www.bohemiancoding.com/sketch -->
    <title>263128 copy</title>
    <desc>Created with Sketch.</desc>
    <defs></defs>
    <g id="PARKING-LOTS" stroke="none" stroke-width="1" fill="none" fill-rule="evenodd">
        <g id="263128-copy" fill="#7D878D">
            <g id="Layer_1">
                <path d="M47.7925781,0.08359375 L2.20742188,0.08359375 C0.990234375,0.08359375 0,1.07382813 0,2.29101563 L0,39.1152344 C0,40.3324219 0.990234375,41.3226563 2.20742188,41.3226563 L47.7925781,41.3226563 C49.0097656,41.3226563 50,40.3324219 50,39.1152344 L50,2.29101563 C50,1.07382813 49.0097656,0.08359375 47.7925781,0.08359375 Z M47.7925781,39.1152344 L2.20751953,39.1166992 C2.20751953,39.1166992 2.20742187,39.1162109 2.20742187,39.1152344 L2.20742187,2.29101563 L47.7925781,2.29101563 L47.7925781,39.1152344 Z" id="Shape"></path>
                <path d="M43.6499023,5.33007812 L6.35,5.33007812 C5.74052734,5.33007812 5.24628906,5.82431641 5.24628906,6.43378906 L5.24628906,30.8283203 C5.24628906,31.437793 5.74052734,31.9319336 6.35,31.9319336 L43.6498047,31.9319336 C44.2592773,31.9319336 44.7535156,31.4376953 44.7535156,30.8282227 L44.7535156,6.43378906 C44.7536133,5.82431641 44.259375,5.33007812 43.6499023,5.33007812 Z M7.45371094,7.5375 L42.5460937,7.5375 L42.5460937,26.2224609 L35.5902344,19.2673828 C35.159375,18.8365234 34.4605469,18.8365234 34.0293945,19.2673828 L29.7890625,23.5077148 L20.0664062,13.7850586 C19.6354492,13.3543945 18.9366211,13.3541992 18.5055664,13.7850586 L7.45380859,24.8358398 L7.45380859,7.5375 L7.45371094,7.5375 Z M7.45371094,29.7244141 L7.45371094,27.9573242 L19.2859375,16.1262695 L32.8839844,29.7244141 L7.45371094,29.7244141 L7.45371094,29.7244141 Z M42.5462891,29.7245117 L36.005957,29.7245117 L36.005957,29.7244141 L31.3500977,25.0685547 L34.8099609,21.6085938 L42.2925781,29.0902344 C42.3695312,29.1671875 42.4552734,29.2298828 42.5461914,29.2792969 L42.5461914,29.7245117 L42.5462891,29.7245117 Z" id="Shape"></path>
                <path d="M29.7211914,9.63173828 C27.4204102,9.63173828 25.5484375,11.5036133 25.5484375,13.8044922 C25.5484375,16.1053711 27.4203125,17.9772461 29.7211914,17.9772461 C32.0220703,17.9772461 33.8939453,16.1053711 33.8939453,13.8044922 C33.8939453,11.5036133 32.0219727,9.63173828 29.7211914,9.63173828 Z M29.7211914,15.7698242 C28.6374023,15.7698242 27.7558594,14.8882812 27.7558594,13.8044922 C27.7558594,12.7208008 28.6375,11.8392578 29.7211914,11.8392578 C30.8047852,11.8392578 31.6864258,12.7208008 31.6864258,13.8044922 C31.6864258,14.8882812 30.8048828,15.7698242 29.7211914,15.7698242 Z" id="Shape"></path>
                <path d="M15.9503906,34.4197266 L6.35,34.4197266 C5.74052734,34.4197266 5.24628906,34.9139648 5.24628906,35.5234375 C5.24628906,36.1330078 5.74052734,36.6271484 6.35,36.6271484 L15.9503906,36.6271484 C16.5599609,36.6271484 17.0541016,36.1329102 17.0541016,35.5234375 C17.0541016,34.9139648 16.5599609,34.4197266 15.9503906,34.4197266 Z" id="Shape"></path>
                <path d="M23.5047852,34.4197266 L20.9867187,34.4197266 C20.3772461,34.4197266 19.8830078,34.9139648 19.8830078,35.5234375 C19.8830078,36.1329102 20.3772461,36.6271484 20.9867187,36.6271484 L23.5047852,36.6271484 C24.1143555,36.6271484 24.6084961,36.1329102 24.6084961,35.5234375 C24.6084961,34.9139648 24.1142578,34.4197266 23.5047852,34.4197266 Z" id="Shape"></path>
            </g>
        </g>
    </g>
</svg>