<?xml version="1.0" encoding="UTF-8"?>
<svg width="112px" height="84px" viewBox="0 0 112 84" version="1.1" xmlns="http://www.w3.org/2000/svg" xmlns:xlink="http://www.w3.org/1999/xlink">
    <!-- Generator: Sketch 48.2 (47327) - http://www.bohemiancoding.com/sketch -->
    <title>images_BS</title>
    <desc>Created with Sketch.</desc>
    <defs></defs>
    <g id="PARKING-LOTS" stroke="none" stroke-width="1" fill="none" fill-rule="evenodd">
        <rect id="Rectangle-16" fill="#FFFFFF" x="-123" y="-428" width="415" height="700"></rect>
        <g id="Group-4">
            <path d="M14.0846056,72 L97.914898,72 C99.434207,72 100.925747,72.4072201 102.23427,73.1792743 L110.40472,78 C111.938072,78.9047082 112.447689,80.8811469 111.542981,82.4144995 C110.963264,83.3970373 109.907412,84 108.7666,84 L3.23290312,84 C1.45254723,84 0.00928361435,82.5567364 0.00928361435,80.7763805 C0.00928361435,79.6355687 0.612246353,78.5797166 1.59478407,78 L9.76523353,73.1792743 C11.0737564,72.4072201 12.5652966,72 14.0846056,72 Z" id="Rectangle-22" fill="#F5F5F5"></path>
            <g id="business-card-of-a-man-with-contact-info" transform="translate(9.000000, 0.000000)" fill-rule="nonzero">
                <path d="M81.273991,0 L12.7289521,0 C5.69786155,0 0,5.77216758 0,12.8949508 L0,64.1050492 C0,71.2308139 5.69786155,77 12.7289521,77 L81.273991,77 C88.3050816,77 94,71.2278324 94,64.1050492 L94,12.8949508 C94,5.77216758 88.3050816,0 81.273991,0 Z M87.9931119,64.1050492 C87.9931119,67.858747 84.9793669,70.9117943 81.273991,70.9117943 L12.7289521,70.9117943 C9.02357619,70.9117943 6.00983124,67.858747 6.00983124,64.1050492 L6.00983124,12.8949508 C6.00983124,9.141253 9.02357619,6.08820568 12.7289521,6.08820568 L81.273991,6.08820568 C84.9793669,6.08820568 87.9931119,9.141253 87.9931119,12.8949508 L87.9931119,64.1050492 Z" id="Shape" fill="#7D878D"></path>
                <path d="M81.273991,0 L12.7289521,0 C9.38765655,0 6.34744605,1.3035369 4.07672855,3.43609418 C6.35495452,5.51750806 8.84215196,7.74600852 11.5383209,10.1215955 C17.6592963,15.5147703 60.2506933,4.39995709 75.4780646,15.1347442 C82.6828466,20.2138743 84.6148221,34.4629576 81.273991,57.881994 C76.2713279,58.840106 79.6278964,63.5715225 91.3436964,72.0762434 C93.1145655,69.8705746 94,67.2135099 94,64.1050492 L94,12.8949508 C94,5.77216758 88.3050816,0 81.273991,0 Z M87.9931119,64.1050492 C87.9931119,65.9544276 87.2615696,67.6337334 86.0761895,68.8616405 C85.8165406,69.1306046 85.8673577,25.1555723 80.1485162,20.988547 C58.9833953,5.56661332 6.93744574,9.20756013 7.8220201,8.2493046 C9.04901875,6.92010235 10.7947573,6.08820568 12.7289521,6.08820568 L81.273991,6.08820568 C84.9793669,6.08820568 87.9931119,9.141253 87.9931119,12.8949508 L87.9931119,64.1050492 Z" id="Shape" fill="#F9F9F9" opacity="0.452898551"></path>
            </g>
            <g id="images" transform="translate(33.000000, 19.000000)" fill="#7D878D" fill-rule="nonzero">
                <path d="M35.4128437,17.7771565 C33.1936284,18.8699438 31.3842265,22.1875134 29.267586,19.9984202 C27.9812675,18.5547747 26.4552835,16.2581118 24.7017874,13.6603543 C22.8058531,10.8675639 20.38878,8.46634719 17.5448785,11.2098767 C14.3699178,14.2977297 12.1891073,22.6771063 12,26.9894441 L42,27 C41.3135746,24.4660806 38.6471132,16.1847231 35.4128437,17.7771565 Z" id="Shape"></path>
                <circle id="Oval" cx="36" cy="9" r="4"></circle>
                <path d="M46.8982294,0 L7.70165465,0 C7.09389905,0 6.60037222,0.502862833 6.60037222,1.1227284 L6.60037222,6.80159323 L1.10128243,6.80159323 C0.493526833,6.80209111 0,7.30445606 0,7.92432163 L0,36.8772716 C0,37.4976351 0.493526833,38 1.10128243,38 L40.2978572,38 C40.9056128,38 41.3991396,37.4966393 41.3991396,36.8772716 L41.3991396,31.1994025 L46.8987176,31.1994025 C47.505985,31.1994025 48,30.6965397 48,30.0766741 L48,1.1227284 C47.9995118,0.503360717 47.5054969,0 46.8982294,0 Z M38.4433484,34.9863082 L2.95579127,34.9863082 L2.95579127,9.81677869 L6.60037222,9.81677869 L6.60037222,27.3164053 C6.04729022,29.4956435 5.70655656,31.5897436 5.63723825,33.1476226 L35.7623895,33.1575803 C35.630099,32.6776201 35.4240967,31.9875529 35.1560984,31.1994025 L38.4433484,31.1994025 L38.4433484,34.9863082 Z M45.0437206,28.1842171 L9.55616349,28.1842171 L9.55616349,3.01518546 L45.0437206,3.01518546 L45.0437206,28.1842171 Z" id="Shape"></path>
            </g>
        </g>
    </g>
</svg>