<?xml version="1.0" encoding="UTF-8"?>
<svg width="112px" height="64px" viewBox="0 0 112 64" version="1.1" xmlns="http://www.w3.org/2000/svg" xmlns:xlink="http://www.w3.org/1999/xlink">
    <!-- Generator: Sketch 48.2 (47327) - http://www.bohemiancoding.com/sketch -->
    <title>parking_lots_BS</title>
    <desc>Created with Sketch.</desc>
    <defs></defs>
    <g id="PARKING-LOTS" stroke="none" stroke-width="1" fill="none" fill-rule="evenodd">
        <rect id="Rectangle-16" fill="#FFFFFF" x="-123" y="-341" width="415" height="700"></rect>
        <g id="Group-2">
            <g id="Group" transform="translate(71.000000, 0.000000)"></g>
            <g id="Group-3">
                <path d="M14.0846056,52 L97.914898,52 C99.434207,52 100.925747,52.4072201 102.23427,53.1792743 L110.40472,58 C111.938072,58.9047082 112.447689,60.8811469 111.542981,62.4144995 C110.963264,63.3970373 109.907412,64 108.7666,64 L3.23290312,64 C1.45254723,64 0.00928361435,62.5567364 0.00928361435,60.7763805 C0.00928361435,59.6355687 0.612246353,58.5797166 1.59478407,58 L9.76523353,53.1792743 C11.0737564,52.4072201 12.5652966,52 14.0846056,52 Z" id="Rectangle-22" fill="#F5F5F5"></path>
                <path d="M75.632967,23.6252362 C75.3759707,23.6252362 75.1122344,23.6619598 74.8484982,23.7339497 L71.8676923,24.5506131 L68.7728938,17.0514171 C67.8958242,14.9269849 65.3038828,13.1983518 62.9950183,13.1983518 L34.0279853,13.1983518 C31.7188278,13.1983518 29.1271795,14.9269849 28.2504029,17.0514171 L25.1594139,24.5401206 L22.2155311,23.7336583 C21.9520879,23.6616683 21.6883516,23.6249447 21.4313553,23.6249447 C20.0224176,23.6249447 19,24.6954673 19,26.1699497 L19,27.9175276 C19,29.6388744 20.4083516,31.0396181 22.1390476,31.0396181 L22.476337,31.0396181 L21.9767033,32.2500402 C21.1620513,34.223206 20.4989011,37.5650553 20.4989011,39.6991055 L20.4989011,54.5969447 C20.4989011,56.3182915 21.9072527,57.7190352 23.6379487,57.7190352 L27.7375824,57.7190352 C29.4682784,57.7190352 30.87663,56.3182915 30.87663,54.5969447 L30.87663,50.8767839 L66.1460806,50.8767839 L66.1460806,54.5969447 C66.1460806,56.3182915 67.5544322,57.7190352 69.2851282,57.7190352 L73.3841758,57.7190352 C75.1148718,57.7190352 76.5232234,56.3182915 76.5232234,54.5969447 L76.5232234,39.699397 C76.5232234,37.5656382 75.8600733,34.2237889 75.0454212,32.2503317 L74.5457875,31.0399095 L74.9249817,31.0399095 C76.6556777,31.0399095 78.0640293,29.6391658 78.0640293,27.9178191 L78.0640293,26.1702412 C78.0643223,24.6957588 77.0416117,23.6252362 75.632967,23.6252362 Z M27.4096703,29.3442111 L32.0918681,18.0012764 C32.6164103,16.7305226 34.1753846,15.690603 35.5564835,15.690603 L61.4665201,15.690603 C62.847619,15.690603 64.4065934,16.7302312 64.9311355,18.0012764 L69.6133333,29.3442111 C70.1375824,30.6149648 69.4369231,31.6548844 68.0558242,31.6548844 L28.9674725,31.6548844 C27.5860806,31.654593 26.8854212,30.6149648 27.4096703,29.3442111 Z M37.8615385,43.6917789 C37.8615385,44.3787437 37.2962637,44.9403819 36.6061538,44.9403819 L27.7117949,44.9403819 C27.0210989,44.9403819 26.4561172,44.3784523 26.4561172,43.6917789 L26.4561172,39.4464121 C26.4561172,38.7597387 27.0210989,38.197809 27.7117949,38.197809 L36.6061538,38.197809 C37.2962637,38.197809 37.8615385,38.7597387 37.8615385,39.4464121 L37.8615385,43.6917789 L37.8615385,43.6917789 Z M70.4824908,43.6917789 C70.4824908,44.3787437 69.9172161,44.9403819 69.2271062,44.9403819 L60.3327473,44.9403819 C59.6426374,44.9403819 59.0773626,44.3784523 59.0773626,43.6917789 L59.0773626,39.4464121 C59.0773626,38.7597387 59.6426374,38.197809 60.3327473,38.197809 L69.2271062,38.197809 C69.9172161,38.197809 70.4824908,38.7597387 70.4824908,39.4464121 L70.4824908,43.6917789 Z" id="Shape" fill="#7D878D" fill-rule="nonzero"></path>
                <path d="M95.0254092,0 L79.9745908,0 C77.7828997,0 76,1.74449225 76,3.8883226 L76,18.6127543 C76,20.7568748 77.7831964,22.5013671 79.9745908,22.5013671 L86.016574,22.5013671 L86.016574,55.5489168 C86.016574,56.3504952 86.6804891,57 87.4998517,57 C88.3192142,57 88.9831293,56.3504952 88.9831293,55.5489168 L88.9831293,22.5016573 L95.0254092,22.5016573 C97.2171003,22.5016573 99,20.757165 99,18.6130445 L99,3.88861282 C99,1.74449225 97.2171003,0 95.0254092,0 Z M91.6165405,12.2085436 C90.7508996,12.9709427 89.4758742,13.3575113 87.8270627,13.3575113 L85.6475345,13.3575113 C85.3858844,13.3575113 85.1728857,13.566177 85.1728857,13.8221481 L85.1728857,17.4176421 C85.1728857,17.8082737 84.8480479,18.1257707 84.4487495,18.1257707 L82.7981582,18.1257707 C82.3985632,18.1257707 82.074022,17.8079835 82.074022,17.4176421 L82.074022,5.08488582 C82.074022,4.693964 82.3988598,4.37617678 82.7981582,4.37617678 L86.9560821,4.37617678 C89.7105287,4.37617678 90.7387368,4.78218986 91.5836117,5.48364349 C92.4747649,6.22340572 92.9262747,7.3564115 92.9262747,8.85189786 C92.925978,10.3131387 92.4857412,11.4420814 91.6165405,12.2085436 Z" id="Shape" fill="#7D878D" fill-rule="nonzero"></path>
                <path d="M89.2361905,7.52688442 C88.8388278,7.22843216 88.1358242,7.07687437 87.1471062,7.07687437 L85.6704762,7.07687437 C85.4120147,7.07687437 85.2016117,7.2861407 85.2016117,7.54291457 L85.2016117,10.5105327 C85.2016117,10.7673065 85.4120147,10.9765729 85.6704762,10.9765729 L86.5551648,10.9765729 C86.8801465,10.9765729 87.4052747,10.9526734 87.7255678,10.9232362 C88.0364835,10.8949648 88.9141392,10.7684724 89.2361905,10.5265628 C89.6227106,10.2356884 89.8187546,9.73263317 89.8187546,9.03167839 C89.8187546,8.3240201 89.6227106,7.81775879 89.2361905,7.52688442 Z" id="Shape" fill="#7D878D" fill-rule="nonzero"></path>
            </g>
            <path d="M77.1704294,1.15053715 L97.8322207,21.3576072 C97.3449422,21.7914433 96.8496295,22.095974 96.3462827,22.2711993 C95.8429358,22.4464246 95.3151606,22.5226915 94.7629569,22.5 L80,22.5 C77.790861,22.5 76,20.709139 76,18.5 L76,3.9461356 C75.9715065,3.43616821 76.0621636,2.93061925 76.2719712,2.42948872 C76.4817788,1.92835819 76.7812649,1.502041 77.1704294,1.15053715 Z" id="Rectangle-2" fill="#F9F9F9" opacity="0.452898551"></path>
        </g>
    </g>
</svg>