<?xml version="1.0" encoding="UTF-8"?>
<svg width="112px" height="84px" viewBox="0 0 112 84" version="1.1" xmlns="http://www.w3.org/2000/svg" xmlns:xlink="http://www.w3.org/1999/xlink">
    <!-- Generator: Sketch 48.2 (47327) - http://www.bohemiancoding.com/sketch -->
    <title>pso_files_BS</title>
    <desc>Created with Sketch.</desc>
    <defs></defs>
    <g id="PARKING-LOTS" stroke="none" stroke-width="1" fill="none" fill-rule="evenodd">
        <rect id="Rectangle-16" fill="#FFFFFF" x="-124" y="-649" width="415" height="810"></rect>
        <g id="Group-4-Copy">
            <path d="M14.0846056,72 L97.914898,72 C99.434207,72 100.925747,72.4072201 102.23427,73.1792743 L110.40472,78 C111.938072,78.9047082 112.447689,80.8811469 111.542981,82.4144995 C110.963264,83.3970373 109.907412,84 108.7666,84 L3.23290312,84 C1.45254723,84 0.00928361435,82.5567364 0.00928361435,80.7763805 C0.00928361435,79.6355687 0.612246353,78.5797166 1.59478407,78 L9.76523353,73.1792743 C11.0737564,72.4072201 12.5652966,72 14.0846056,72 Z" id="Rectangle-22" fill="#F5F5F5"></path>
            <g id="business-card-of-a-man-with-contact-info" transform="translate(9.000000, 0.000000)" fill-rule="nonzero">
                <path d="M81.273991,0 L12.7289521,0 C5.69786155,0 0,5.77216758 0,12.8949508 L0,64.1050492 C0,71.2308139 5.69786155,77 12.7289521,77 L81.273991,77 C88.3050816,77 94,71.2278324 94,64.1050492 L94,12.8949508 C94,5.77216758 88.3050816,0 81.273991,0 Z M87.9931119,64.1050492 C87.9931119,67.858747 84.9793669,70.9117943 81.273991,70.9117943 L12.7289521,70.9117943 C9.02357619,70.9117943 6.00983124,67.858747 6.00983124,64.1050492 L6.00983124,12.8949508 C6.00983124,9.141253 9.02357619,6.08820568 12.7289521,6.08820568 L81.273991,6.08820568 C84.9793669,6.08820568 87.9931119,9.141253 87.9931119,12.8949508 L87.9931119,64.1050492 Z" id="Shape" fill="#7D878D"></path>
                <path d="M81.273991,0 L12.7289521,0 C9.38765655,0 6.34744605,1.3035369 4.07672855,3.43609418 C6.35495452,5.51750806 8.84215196,7.74600852 11.5383209,10.1215955 C17.6592963,15.5147703 60.2506933,4.39995709 75.4780646,15.1347442 C82.6828466,20.2138743 84.6148221,34.4629576 81.273991,57.881994 C76.2713279,58.840106 79.6278964,63.5715225 91.3436964,72.0762434 C93.1145655,69.8705746 94,67.2135099 94,64.1050492 L94,12.8949508 C94,5.77216758 88.3050816,0 81.273991,0 Z M87.9931119,64.1050492 C87.9931119,65.9544276 87.2615696,67.6337334 86.0761895,68.8616405 C85.8165406,69.1306046 85.8673577,25.1555723 80.1485162,20.988547 C58.9833953,5.56661332 6.93744574,9.20756013 7.8220201,8.2493046 C9.04901875,6.92010235 10.7947573,6.08820568 12.7289521,6.08820568 L81.273991,6.08820568 C84.9793669,6.08820568 87.9931119,9.141253 87.9931119,12.8949508 L87.9931119,64.1050492 Z" id="Shape" fill="#F9F9F9" opacity="0.452898551"></path>
            </g>
            <g id="signing-the-contract" transform="translate(40.000000, 18.000000)" fill="#7D878D" fill-rule="nonzero">
                <path d="M22.2961702,7.12170213 L8.66042553,7.12170213 C7.65617021,7.12170213 6.84170213,7.93617021 6.84170213,8.93957447 C6.84170213,9.94297872 7.65617021,10.7574468 8.66042553,10.7574468 L22.2961702,10.7574468 C23.3021277,10.7574468 24.1148936,9.94297872 24.1148936,8.93957447 C24.1140426,7.93617021 23.3012766,7.12170213 22.2961702,7.12170213 Z" id="Shape"></path>
                <path d="M24.1140426,15.7574468 C24.1140426,14.7531915 23.3012766,13.9395745 22.2953191,13.9395745 L8.66042553,13.9395745 C7.65617021,13.9395745 6.84170213,14.7540426 6.84170213,15.7574468 C6.84170213,16.7617021 7.65617021,17.5761702 8.66042553,17.5761702 L22.2961702,17.5761702 C23.3012766,17.5761702 24.1140426,16.7617021 24.1140426,15.7574468 Z" id="Shape"></path>
                <path d="M15.4791489,24.3940426 C16.4834043,24.3940426 17.2970213,23.5795745 17.2970213,22.5761702 C17.2970213,21.5719149 16.4834043,20.7574468 15.4791489,20.7574468 L8.66042553,20.7574468 C7.65617021,20.7574468 6.84170213,21.5719149 6.84170213,22.5761702 C6.84170213,23.5804255 7.65617021,24.3940426 8.66042553,24.3940426 L15.4791489,24.3940426 Z" id="Shape"></path>
                <path d="M29.2034043,30.5787234 L27.2961702,31.8374468 L27.2961702,36.3634043 L3.66042553,36.3634043 L3.66042553,3.63659574 L27.2961702,3.63659574 L27.2961702,10.8212766 L30.932766,4.52255319 L30.932766,1.81787234 C30.932766,0.813617021 30.1182979,0 29.1140426,0 L1.84170213,0 C0.837446809,0 0.0238297872,0.814468085 0.0238297872,1.81787234 L0.0238297872,38.1829787 C0.0238297872,39.187234 0.837446809,40.0008511 1.84170213,40.0008511 L29.1140426,40.0008511 C30.1191489,40.0008511 30.933617,39.186383 30.933617,38.1829787 L30.933617,28.1617021 L30.0646809,29.6646809 C29.852766,30.0314894 29.5548936,30.347234 29.2034043,30.5787234 Z" id="Shape"></path>
                <path d="M39.9548936,8.42042553 C39.9174468,8.25702128 39.533617,6.78808511 37.2204255,5.45191489 C34.907234,4.11659574 33.4434043,4.51829787 33.2817021,4.56851064 C33.0646809,4.63744681 32.8817021,4.78382979 32.7676596,4.9812766 L21.4042553,24.6629787 C21.333617,24.786383 21.2919149,24.9234043 21.2834043,25.0646809 L20.8578723,32.1668085 C20.8374468,32.5106383 21.012766,32.8357447 21.3097872,33.0085106 C21.6093617,33.1804255 21.9778723,33.1685106 22.2655319,32.9804255 L28.2034043,29.0604255 C28.3217021,28.9838298 28.4195745,28.8791489 28.4902128,28.7574468 L39.8544681,9.07234043 C39.9685106,8.87489362 40.0034043,8.64340426 39.9548936,8.42042553 Z M24.5565957,29.8340426 C24.2544681,29.5897872 23.9114894,29.3591489 23.5429787,29.1455319 C23.172766,28.9319149 22.8017021,28.7523404 22.4391489,28.6110638 L22.5659574,26.4817021 C23.04,26.5438298 23.7429787,26.7361702 24.6357447,27.2502128 C25.5276596,27.7651064 26.0442553,28.2791489 26.3370213,28.6578723 L24.5565957,29.8340426 Z" id="Shape"></path>
                <path d="M12.6995745,32.7948936 C12.7591489,33.16 13.1804255,33.2731915 13.4621277,33.3906383 C13.7344681,33.5055319 14.0595745,33.2876596 14.2859574,33.1778723 C15.6731915,32.5029787 17.5523404,33.2961702 19.0382979,33.2961702 C19.9174468,33.2961702 19.9174468,31.932766 19.0382979,31.932766 C17.3055319,31.932766 15.8638298,31.4944681 14.146383,31.7778723 C14.146383,31.6782979 14.1097872,31.5438298 14.0025532,31.3608511 C13.6817021,30.8119149 13.2731915,30.6561702 12.8638298,30.7225532 C12.8365957,30.6578723 12.8102128,30.5931915 12.7719149,30.5276596 C12.6646809,30.3523404 12.5148936,30.2646809 12.346383,30.2280851 C12.8255319,29.3906383 13.1344681,28.5046809 12.8204255,27.7880851 C12.7242553,27.5702128 12.4510638,27.4587234 12.2314894,27.4502128 C11.3208511,27.4161702 10.5395745,28.3719149 9.95404255,28.9455319 C8.4893617,30.3812766 7.19914894,32.0110638 5.9506383,33.6331915 C5.41446809,34.3302128 6.6,35.0076596 7.12765957,34.3225532 C8.23404255,32.8859574 9.40595745,31.4910638 10.667234,30.186383 C10.3634043,30.6851064 10.0408511,31.1744681 9.7012766,31.6459574 C9.21617021,32.3957447 10.3744681,33.0340426 10.8782979,32.3344681 C10.9982979,32.1514894 11.1506383,32.0195745 11.3174468,31.906383 C11.2842553,31.9906383 11.2502128,32.0731915 11.2161702,32.1582979 C11.2178723,32.1582979 11.2195745,32.1591489 11.2212766,32.16 C11.1948936,32.2144681 11.1685106,32.2689362 11.147234,32.3208511 C10.8425532,33.0842553 11.9804255,33.4340426 12.3940426,32.8451064 C12.4987234,32.6970213 12.5957447,32.5387234 12.6834043,32.372766 C12.6774468,32.4868085 12.6748936,32.64 12.6995745,32.7948936 Z" id="Shape"></path>
            </g>
        </g>
    </g>
</svg>