<?xml version="1.0" encoding="UTF-8"?>
<svg width="112px" height="53px" viewBox="0 0 112 53" version="1.1" xmlns="http://www.w3.org/2000/svg" xmlns:xlink="http://www.w3.org/1999/xlink">
    <!-- Generator: Sketch 48.2 (47327) - http://www.bohemiancoding.com/sketch -->
    <title>reservations_BS</title>
    <desc>Created with Sketch.</desc>
    <defs></defs>
    <g id="--CS-(Customer-Support)" stroke="none" stroke-width="1" fill="none" fill-rule="evenodd">
        <g id="Group-3-Copy" transform="translate(0.000000, -1.000000)">
            <path d="M14.0846056,42 L97.914898,42 C99.434207,42 100.925747,42.4072201 102.23427,43.1792743 L110.40472,48 C111.938072,48.9047082 112.447689,50.8811469 111.542981,52.4144995 C110.963264,53.3970373 109.907412,54 108.7666,54 L3.23290312,54 C1.45254723,54 0.00928361435,52.5567364 0.00928361435,50.7763805 C0.00928361435,49.6355687 0.612246353,48.5797166 1.59478407,48 L9.76523353,43.1792743 C11.0737564,42.4072201 12.5652966,42 14.0846056,42 Z" id="Rectangle-22" fill="#DCDCDC"></path>
            <path d="M11.8000002,1 L100.2,1 C102.850967,1 105,3.14903329 105,5.80000019 L105,44.1999998 C105,46.8509667 102.850967,49 100.2,49 L11.8000002,49 C9.14903329,49 7,46.8509667 7,44.1999998 L7,5.80000019 C7,3.14903329 9.14903329,1 11.8000002,1 Z M15.4000001,7 C14.0745166,7 13,8.07451664 13,9.4000001 L13,40.5999999 C13,41.9254834 14.0745166,43 15.4000001,43 L96.5999999,43 C97.9254834,43 99,41.9254834 99,40.5999999 L99,9.4000001 C99,8.07451664 97.9254834,7 96.5999999,7 L15.4000001,7 Z" id="Combined-Shape" fill="#7D878D"></path>
            <path d="M93.2850904,43 L96.5999999,43 C97.9254834,43 99,41.9254834 99,40.5999999 L99,15 L99,9.4000001 C99,8.07451664 97.9254834,7 96.5999999,7 L18.689691,7 L8.69691603,2.17745194 C9.02793613,1.81740721 9.51693921,1.52211061 10.1639253,1.29156214 C10.8109113,1.06101368 11.4966197,0.963826295 12.2210503,1 L100.2,1 C102.850967,1 105,3.14903329 105,5.80000019 L105,43.9173937 C105.016031,44.7970784 104.871845,45.556529 104.567445,46.1957456 C104.263044,46.8349623 103.860792,47.3905535 103.36069,47.8625194 L93.2850904,43 Z" id="Combined-Shape-Copy" fill="#F9F9F9" opacity="0.452898551"></path>
            <text id="RESERVED" font-family="Lato-Bold, Lato" font-size="14" font-weight="bold" letter-spacing="-0.411764622" fill="#7D878D">
                <tspan x="22.9965585" y="31">RESERVED</tspan>
            </text>
        </g>
    </g>
</svg>